<svg width="29" height="30" viewBox="0 0 29 30" fill="none" xmlns="http://www.w3.org/2000/svg">
<path fill-rule="evenodd" clip-rule="evenodd" d="M1.55753 4.08047C1.63338 3.85249 1.79666 3.66397 2.01146 3.55635C2.22626 3.44872 2.47501 3.43079 2.70303 3.50651L3.07157 3.62976C3.82799 3.8823 4.4672 4.09497 4.97107 4.32938C5.50516 4.5783 5.96916 4.88522 6.32078 5.37459C6.67241 5.86155 6.81861 6.39926 6.88507 6.9853C6.91729 7.28497 6.93623 7.62048 6.94186 7.99184H19.8783C22.3614 7.99184 23.6024 7.99184 24.1401 8.80626C24.6766 9.62067 24.1884 10.7625 23.2097 13.0451L22.6925 14.2534C22.2357 15.3192 22.0074 15.8508 21.553 16.1505C21.0987 16.4502 20.5199 16.4502 19.3599 16.4502H7.13278C7.25966 17.1027 7.46024 17.4845 7.7442 17.7685C8.07891 18.1032 8.54895 18.3207 9.43586 18.4403C10.3482 18.5623 11.5577 18.5648 13.2917 18.5648H21.75C21.9903 18.5648 22.2209 18.6602 22.3908 18.8302C22.5608 19.0001 22.6562 19.2307 22.6562 19.471C22.6562 19.7114 22.5608 19.9419 22.3908 20.1118C22.2209 20.2818 21.9903 20.3773 21.75 20.3773H13.2252C11.5734 20.3773 10.2406 20.3773 9.19299 20.2359C8.10549 20.0909 7.18957 19.7767 6.46216 19.0505C5.73595 18.3231 5.42299 17.4072 5.27678 16.3197C5.13541 15.272 5.13541 13.9393 5.13541 12.2875V9.0588C5.13541 8.19726 5.13541 7.62692 5.08466 7.19072C5.03632 6.77747 4.95536 6.57809 4.85024 6.4343C4.74632 6.2893 4.5832 6.14792 4.2062 5.97272C3.80745 5.78784 3.26732 5.60538 2.45049 5.3323L2.13028 5.22597C1.90253 5.14987 1.71429 4.98649 1.60691 4.77172C1.49952 4.55694 1.48176 4.30832 1.55753 4.08047ZM9.66666 10.7106C9.4263 10.7106 9.1958 10.8061 9.02584 10.976C8.85589 11.146 8.76041 11.3765 8.76041 11.6168C8.76041 11.8572 8.85589 12.0877 9.02584 12.2577C9.1958 12.4276 9.4263 12.5231 9.66666 12.5231H13.2917C13.532 12.5231 13.7625 12.4276 13.9325 12.2577C14.1024 12.0877 14.1979 11.8572 14.1979 11.6168C14.1979 11.3765 14.1024 11.146 13.9325 10.976C13.7625 10.8061 13.532 10.7106 13.2917 10.7106H9.66666Z" fill="#0694FF"/>
<path d="M9.0625 22.4918C9.54321 22.4918 10.0042 22.6828 10.3441 23.0227C10.684 23.3626 10.875 23.8236 10.875 24.3043C10.875 24.785 10.684 25.246 10.3441 25.586C10.0042 25.9259 9.54321 26.1168 9.0625 26.1168C8.5818 26.1168 8.12078 25.9259 7.78087 25.586C7.44096 25.246 7.25 24.785 7.25 24.3043C7.25 23.8236 7.44096 23.3626 7.78087 23.0227C8.12078 22.6828 8.5818 22.4918 9.0625 22.4918ZM19.9375 22.4918C20.4182 22.4918 20.8792 22.6828 21.2191 23.0227C21.559 23.3626 21.75 23.8236 21.75 24.3043C21.75 24.785 21.559 25.246 21.2191 25.586C20.8792 25.9259 20.4182 26.1168 19.9375 26.1168C19.4568 26.1168 18.9958 25.9259 18.6559 25.586C18.316 25.246 18.125 24.785 18.125 24.3043C18.125 23.8236 18.316 23.3626 18.6559 23.0227C18.9958 22.6828 19.4568 22.4918 19.9375 22.4918Z" fill="#0694FF"/>
</svg>
