<svg width="72" height="73" viewBox="0 0 72 73" fill="none" xmlns="http://www.w3.org/2000/svg">
<rect y="0.0195312" width="72" height="72" rx="36" fill="#EDFAFF"/>
<path d="M53.8038 24.7607C47.5202 15.0734 34.6911 12.1934 24.742 18.2152C15.0547 24.237 11.9129 37.328 18.1965 47.0152L18.7202 47.8007L16.6256 55.6552L24.4802 53.5607L25.2656 54.0843C28.6693 55.917 32.3347 56.9643 36.0002 56.9643C39.9275 56.9643 43.8547 55.917 47.2584 53.8225C56.9456 47.5389 59.8256 34.7098 53.8038 24.7607ZM48.3056 44.9207C47.2584 46.4916 45.9493 47.5389 44.1165 47.8007C43.0693 47.8007 41.7602 48.3243 36.5238 46.2298C32.0729 44.1352 28.4074 40.7316 25.7893 36.8043C24.2184 34.9716 23.4329 32.6152 23.1711 30.2589C23.1711 28.1643 23.9565 26.3316 25.2656 25.0225C25.7893 24.4989 26.3129 24.237 26.8365 24.237H28.1456C28.6693 24.237 29.1929 24.237 29.4547 25.2843C29.9784 26.5934 31.2874 29.7352 31.2874 29.997C31.5493 30.2589 31.5493 30.7825 31.2874 31.0443C31.5493 31.568 31.2875 32.0916 31.0256 32.3534C30.7638 32.6152 30.502 33.1389 30.2402 33.4007C29.7165 33.6625 29.4547 34.1861 29.7165 34.7098C30.7638 36.2807 32.0729 37.8516 33.382 39.1607C34.9529 40.4698 36.5238 41.517 38.3565 42.3025C38.8802 42.5643 39.4038 42.5643 39.6656 42.0407C39.9274 41.517 41.2365 40.208 41.7602 39.6843C42.2838 39.1607 42.5456 39.1607 43.0693 39.4225L47.2584 41.517C47.782 41.7789 48.3056 42.0407 48.5675 42.3025C48.8293 43.088 48.8293 44.1352 48.3056 44.9207Z" fill="#0080FF"/>
</svg>
