<svg width="16" height="17" viewBox="0 0 16 17" fill="none" xmlns="http://www.w3.org/2000/svg">
<path fill-rule="evenodd" clip-rule="evenodd" d="M14.6667 8.5C14.6667 12.182 11.682 15.1667 7.99999 15.1667C6.93332 15.1667 5.92532 14.916 5.03199 14.4707C4.79608 14.3485 4.52358 14.3169 4.26599 14.382L2.78199 14.7793C2.6351 14.8185 2.48049 14.8184 2.33367 14.7789C2.18685 14.7395 2.053 14.6621 1.94553 14.5546C1.83807 14.4471 1.76078 14.3132 1.72142 14.1663C1.68207 14.0195 1.68203 13.8649 1.72132 13.718L2.11799 12.234C2.18269 11.9765 2.15092 11.7043 2.02865 11.4687C1.56974 10.5464 1.33169 9.53009 1.33332 8.5C1.33332 4.818 4.31799 1.83333 7.99999 1.83333C11.682 1.83333 14.6667 4.818 14.6667 8.5ZM10.6667 8.5C10.6667 7.93733 10.0487 7.55733 8.81332 6.798C7.55999 6.028 6.93332 5.64333 6.46665 5.926C5.99999 6.20866 5.99999 6.97267 5.99999 8.5C5.99999 10.0273 5.99999 10.7913 6.46665 11.074C6.93399 11.3567 7.55999 10.972 8.81332 10.202C10.0487 9.44267 10.6667 9.06266 10.6667 8.5Z" fill="black"/>
<path fill-rule="evenodd" clip-rule="evenodd" d="M14.6667 8.5C14.6667 12.182 11.682 15.1667 7.99999 15.1667C6.93332 15.1667 5.92532 14.916 5.03199 14.4707C4.79608 14.3485 4.52358 14.3169 4.26599 14.382L2.78199 14.7793C2.6351 14.8185 2.48049 14.8184 2.33367 14.7789C2.18685 14.7395 2.053 14.6621 1.94553 14.5546C1.83807 14.4471 1.76078 14.3132 1.72142 14.1663C1.68207 14.0195 1.68203 13.8649 1.72132 13.718L2.11799 12.234C2.18269 11.9765 2.15092 11.7043 2.02865 11.4687C1.56974 10.5464 1.33169 9.53009 1.33332 8.5C1.33332 4.818 4.31799 1.83333 7.99999 1.83333C11.682 1.83333 14.6667 4.818 14.6667 8.5ZM10.6667 8.5C10.6667 7.93733 10.0487 7.55733 8.81332 6.798C7.55999 6.028 6.93332 5.64333 6.46665 5.926C5.99999 6.20866 5.99999 6.97267 5.99999 8.5C5.99999 10.0273 5.99999 10.7913 6.46665 11.074C6.93399 11.3567 7.55999 10.972 8.81332 10.202C10.0487 9.44267 10.6667 9.06266 10.6667 8.5Z" fill="url(#paint0_linear_445_294)"/>
<defs>
<linearGradient id="paint0_linear_445_294" x1="1.33331" y1="8.5" x2="14.6667" y2="8.5" gradientUnits="userSpaceOnUse">
<stop offset="0.5" stop-color="#0080FF"/>
<stop offset="1" stop-color="#58B1FF"/>
</linearGradient>
</defs>
</svg>
